<svg width="64" height="64" viewBox="0 0 64 64" fill="none" xmlns="http://www.w3.org/2000/svg">
  <path d="M16 34C16 24.0589 24.0589 16 34 16C40.3468 16 46.2498 19.3318 49.5 24.75C44 23.9167 39.0833 24.9167 34.75 27.75C36.8055 28.1402 38.5634 29.3437 39.573 31.1799C40.5826 33.0161 40.7392 35.2024 40 37.1667C38.6667 40.6667 35.5 42.5 30.5 42.5H26.75C20.813 42.5 16 37.687 16 31.75V34Z" stroke="currentColor" stroke-width="4" stroke-linecap="round" stroke-linejoin="round"/>
  <path d="M27 43C29.8333 46.6667 34 48.5 39.5 48.5C45.3355 48.5 49.5018 46.0833 52 41.25" stroke="currentColor" stroke-width="4" stroke-linecap="round" stroke-linejoin="round"/>
  <circle cx="38" cy="24.5" r="2" fill="currentColor"/>
</svg>
