<svg xmlns="http://www.w3.org/2000/svg" width="584pt" height="600pt" viewBox="0 0 584 600" preserveAspectRatio="xMidYMid meet">
  <g transform="translate(0,600) scale(0.1,-0.1)" fill="currentColor" stroke="none">
    <path d="M3079 5241 c-165 -105 -315 -359 -348 -586 -10 -71 -9 -164 2 -182 4 -6 46 -37 94 -69 148 -98 244 -174 333 -264 143 -143 216 -263 255 -416 32 -125 21 -312 -22 -411 l-17 -38 -3 30 c-16 174 -28 257 -44 313 -23 82 -98 231 -149 297 -66 85 -191 202 -316 295 -235 175 -280 210 -344 273 -152 146 -270 334 -305 483 -2 10 -10 43 -17 73 -15 62 -37 83 -62 58 -9 -8 -16 -18 -16 -20 0 -2 -10 -26 -22 -53 -12 -27 -23 -58 -25 -69 -2 -11 -8 -31 -13 -45 -17 -45 -30 -153 -30 -261 0 -230 97 -457 268 -626 46 -46 80 -83 75 -84 -50 -5 -167 6 -258 25 -142 29 -327 130 -444 243 -94 91 -111 89 -111 -11 0 -53 5 -81 25 -156 17 -68 83 -205 132 -278 70 -102 258 -269 331 -293 20 -6 42 -15 47 -19 22 -17 191 -60 261 -66 41 -4 74 -10 74 -13 0 -4 -33 -16 -72 -28 -270 -82 -569 -25 -823 156 -79 57 -122 81 -110 61 3 -6 1 -10 -4 -10 -17 0 -13 -50 8 -108 19 -51 107 -222 120 -232 3 -3 25 -30 47 -60 43 -57 171 -190 184 -190 4 0 14 -8 21 -17 23 -27 157 -111 244 -153 163 -77 330 -112 526 -111 196 1 347 39 517 128 34 19 62 30 62 26 0 -19 -88 -108 -139 -141 -153 -98 -309 -143 -492 -143 -48 0 -60 -4 -81 -27 -14 -15 -33 -40 -41 -57 -24 -46 -136 -168 -211 -230 -168 -137 -381 -227 -605 -254 -77 -10 -285 -7 -322 4 -8 3 -23 -1 -32 -8 -15 -11 -16 -17 -5 -47 49 -143 165 -259 302 -301 79 -24 309 14 355 59 7 7 16 10 19 7 18 -17 -190 -173 -300 -225 -66 -31 -169 -60 -211 -60 -30 0 -52 -23 -40 -44 10 -17 73 -85 102 -108 95 -79 238 -100 345 -53 33 15 74 37 90 51 17 13 38 29 46 36 8 6 41 36 73 67 l59 56 -18 -40 c-25 -54 -136 -226 -195 -301 -27 -34 -49 -69 -49 -78 0 -64 179 -36 272 42 45 38 130 157 168 234 17 38 35 66 40 63 4 -2 1 -46 -6 -97 -7 -51 -16 -135 -19 -186 -6 -90 -5 -93 17 -101 34 -12 132 41 195 106 53 55 124 185 138 253 4 19 11 41 15 50 4 8 18 76 29 150 12 74 31 153 42 176 44 92 131 162 222 179 20 4 38 6 39 4 2 -1 12 3 24 9 11 6 43 14 69 18 27 3 66 12 87 20 21 7 40 13 43 14 3 0 6 0 8 1 1 0 9 2 17 4 96 21 231 69 330 117 225 108 448 338 528 543 56 144 75 250 76 412 1 71 5 109 11 105 6 -3 4 1 -3 10 -15 18 -9 164 7 196 5 9 15 30 22 45 41 87 127 142 241 153 73 8 98 18 98 41 0 9 -35 49 -77 90 -43 41 -78 77 -79 81 -2 14 -15 47 -31 77 -9 17 -22 42 -30 56 -22 44 -112 105 -185 127 -114 34 -261 11 -378 -58 -60 -35 -180 -144 -180 -162 0 -4 -4 -8 -8 -8 -5 0 -9 21 -11 47 -3 60 -28 205 -45 263 -19 62 -78 195 -118 262 -83 141 -169 316 -172 348 -1 8 -7 25 -14 38 -8 13 -11 30 -8 37 3 8 1 17 -3 19 -5 3 -14 42 -21 87 -12 77 -10 198 6 332 6 44 -5 77 -25 77 -4 0 -27 -13 -52 -29z m59 -23 c-5 -18 -12 -96 -15 -173 -8 -224 27 -358 152 -590 186 -342 225 -455 228 -657 1 -65 4 -118 7 -118 3 0 16 19 30 41 37 61 158 170 224 203 187 92 392 69 495 -56 13 -16 37 -62 53 -101 20 -50 40 -80 66 -102 41 -33 112 -107 112 -116 0 -4 -35 -9 -77 -11 -132 -8 -220 -66 -272 -177 -25 -54 -26 -65 -32 -296 -7 -240 -11 -273 -51 -395 -109 -337 -406 -589 -829 -704 -52 -14 -153 -39 -225 -55 -273 -61 -340 -135 -384 -421 -44 -285 -132 -430 -314 -513 l-38 -18 6 58 c29 271 57 503 63 518 4 12 3 16 -4 12 -6 -4 -14 -19 -18 -34 -3 -15 -24 -68 -45 -118 -124 -290 -236 -405 -396 -405 l-66 0 45 53 c104 122 213 308 272 465 30 80 28 106 -3 45 -35 -67 -155 -205 -227 -260 -129 -99 -236 -117 -358 -60 -53 24 -177 128 -177 149 0 4 13 8 30 8 91 0 251 64 368 147 71 50 282 249 282 266 0 5 -10 2 -22 -7 -136 -97 -273 -148 -398 -149 -166 -1 -272 73 -361 253 -17 34 -29 63 -27 65 2 2 30 -2 63 -7 77 -13 299 -3 390 17 238 52 440 160 601 322 45 45 102 112 127 150 l46 69 123 12 c143 13 242 39 338 87 132 64 202 126 264 229 20 33 36 63 36 67 0 4 -33 -15 -73 -41 -86 -58 -208 -112 -320 -142 -70 -19 -108 -22 -257 -23 -183 0 -229 7 -375 52 -334 104 -640 392 -746 702 -32 93 -27 96 54 35 209 -157 470 -234 706 -206 56 6 129 21 163 33 63 21 148 66 148 77 0 4 -23 5 -51 3 -103 -7 -271 28 -386 79 -263 119 -479 422 -500 705 l-6 80 74 -70 c83 -79 151 -126 256 -179 139 -69 354 -115 478 -100 l59 6 -24 20 c-169 136 -278 292 -337 485 -24 79 -27 103 -27 238 1 121 5 165 22 228 22 81 70 197 81 197 4 0 12 -30 19 -66 27 -143 117 -321 234 -463 71 -87 170 -171 370 -317 319 -233 461 -406 527 -645 28 -101 43 -266 32 -354 -5 -38 -7 -72 -5 -73 5 -7 58 83 76 132 50 131 60 279 28 413 -60 251 -233 458 -569 683 l-124 83 5 111 c6 121 31 212 89 329 63 124 171 252 257 304 49 30 52 29 40 -9z"/>
    <path d="M4016 3779 c-54 -42 -21 -139 48 -139 34 0 76 41 76 75 0 31 -49 85 -78 85 -11 0 -31 -9 -46 -21z m75 -19 c13 -7 19 -21 19 -45 0 -24 -6 -38 -19 -45 -28 -14 -38 -13 -61 10 -24 24 -26 53 -4 74 18 19 38 20 65 6z"/>
    <path d="M5474 418 c-21 -28 -52 -59 -68 -68 -43 -23 -42 -36 3 -64 22 -14 54 -46 71 -71 17 -25 36 -45 43 -44 7 0 26 21 42 46 17 26 45 54 63 64 19 10 36 20 39 22 9 10 -8 47 -22 47 -19 0 -85 58 -85 74 0 12 -31 46 -42 46 -3 0 -23 -23 -44 -52z m60 18 c9 -37 53 -84 91 -98 19 -6 35 -15 35 -18 0 -3 -16 -12 -35 -18 -38 -14 -82 -61 -91 -98 -8 -31 -20 -31 -28 0 -9 37 -53 84 -91 98 -19 6 -35 15 -35 18 0 3 16 12 35 18 38 14 82 61 91 98 3 13 10 24 14 24 4 0 11 -11 14 -24z"/>
  </g>
</svg>
