<svg xmlns="http://www.w3.org/2000/svg" width="16" height="16" viewBox="0 0 16 16" fill="none">
  <path d="M8 1C4.68629 1 2 3.68629 2 7C2 9.61774 3.6764 11.8439 6.01652 12.6683C6.41165 12.8076 6.66191 13.1961 6.61766 13.6128L6.5 14.7222C6.47054 15 6.6885 15.2424 6.96784 15.2424H9.03216C9.3115 15.2424 9.52946 15 9.5 14.7222L9.38234 13.6128C9.33809 13.1961 9.58835 12.8076 9.98348 12.6683C12.3236 11.8439 14 9.61774 14 7C14 3.68629 11.3137 1 8 1Z" fill="currentColor"/>
  <path d="M5 6C5 4.34315 6.34315 3 8 3" stroke="white" stroke-width="1.4" stroke-linecap="round"/>
  <path d="M8 12.5V14.5" stroke="currentColor" stroke-width="1.6" stroke-linecap="round"/>
  <path d="M7 15.2H9" stroke="currentColor" stroke-width="1.6" stroke-linecap="round"/>
</svg>
